<svg width="1000" height="1000" viewBox="0 0 1000 1000" xmlns="http://www.w3.org/2000/svg">
	<style>
	rect{
		stroke: none;
		stroke-linejoin: round;
	}

    .red{
      	fill: #cb3c33;
		stroke-width: 3px;
    }

    .green{
      	fill: #389826;
		stroke-width: 5px;
    }

    .blue{
      	fill: #4063d8;
		stroke-width: 3px;
    }

    .violet{
      	fill: #9558b2;
		stroke-width: 5px;
    }

	.sketch{
		fill: none;
		stroke: #4063d8;
	  	stroke-width: 7px;
		stroke-dasharray: 12px;
  	}
  	</style>


	<!-- FRAME -->
	<rect x="0" y="0" width="1000" height="1000" stroke="black" fill="none" />

	<path class="sketch" d="M 100 100
	S 400 120 700 150
	S 750 230 650 510
	S 200 150 550 300
	S 150 400 250 500
	S  90 650 150 700
	S 800 600 900 700" />

	<g transform="scale(1.8) translate(-220, -220)">
		<g transform="translate(238.05, 650)">
			<svg width="523.9" height="96.503" viewBox="0 0 523.9 96.503" xmlns="http://www.w3.org/2000/svg">
				<g id="svgGroup" stroke-linecap="round" fill-rule="evenodd" font-size="9pt" stroke-width="0.0mm" fill="#4063d8" style="stroke-width:0.0mm;fill:#4063d8">
					<path d="M 95.3 15.3 L 82.8 49.3 L 68.7 15.3 A 35.25 35.25 0 0 1 67.943 13.191 C 66.127 7.524 67.176 4.555 72.157 3.927 A 18.029 18.029 0 0 1 74.4 3.8 L 74.4 1 L 39.9 1 L 39.9 3.8 A 10.696 10.696 0 0 1 43.008 4.218 C 46.877 5.386 48.481 8.892 50.479 13.292 A 179.116 179.116 0 0 0 51.4 15.3 L 53.7 20.8 L 43.5 49.1 L 29.1 15.3 A 38.865 38.865 0 0 1 28.312 13.117 C 26.239 6.734 27.649 3.8 34.6 3.8 L 34.6 1 L 0 1 L 0 3.8 C 6.7 3.8 8.7 8.9 11.7 15.3 L 35.2 71 L 40 71 L 56 26.4 L 74.3 71 L 79.1 71 L 99.7 15.3 C 101.801 9.96 103.825 5.157 109.395 4.042 A 13.257 13.257 0 0 1 112 3.8 L 112 1 L 87.3 1 L 87.3 3.8 A 19.409 19.409 0 0 1 90.609 4.051 C 95.688 4.937 97.392 8.246 95.309 15.27 A 31.287 31.287 0 0 1 95.3 15.3 Z M 193.2 22.5 L 196.3 22.5 L 194.7 0 L 192.7 0 C 191.3 5.7 187.7 1.1 176.7 0.2 A 44.507 44.507 0 0 0 174.054 0.097 C 164.477 0.012 152.167 3.023 150.379 15.86 A 22.794 22.794 0 0 0 150.2 17.7 A 19.994 19.994 0 0 0 150.172 18.751 C 150.172 29.128 158.503 34.709 166.834 39.191 A 575.022 575.022 0 0 0 172 41.9 A 571.41 571.41 0 0 0 172.068 41.935 C 182.829 47.413 189.797 50.518 188.3 59 A 10.178 10.178 0 0 1 184.348 65.181 C 181.652 67.243 177.701 68.478 172.7 68.2 A 25.905 25.905 0 0 1 167.604 67.437 C 166.02 67.02 164.634 66.443 163.484 65.707 A 7.602 7.602 0 0 1 159.9 60.7 A 12.445 12.445 0 0 1 159.746 59.716 C 159.095 54.054 163.131 51.774 167.167 51.88 A 10.332 10.332 0 0 1 167.6 51.9 A 6.677 6.677 0 0 0 167.354 50.159 C 166.607 47.407 164.182 44.381 160.409 42.916 A 13.174 13.174 0 0 0 157 42.1 A 12.2 12.2 0 0 0 155.851 42.045 C 149.282 42.045 144.143 47.469 145.222 55.173 A 16.078 16.078 0 0 0 145.4 56.2 A 15.567 15.567 0 0 0 152.533 65.847 C 155.601 67.903 159.409 69.452 163.532 70.469 A 50.083 50.083 0 0 0 172.3 71.8 C 185.3 72.6 200.8 67.1 202.9 53.7 A 22.981 22.981 0 0 0 203.143 51.677 C 203.958 40.71 195.775 35.562 187.593 31.125 A 7779.88 7779.88 0 0 0 184.2 29.3 C 176.743 25.081 164.086 20.476 164.086 12.652 A 7.341 7.341 0 0 1 164.1 12.2 C 164.375 6.704 169.517 3.725 175.145 3.725 A 16.156 16.156 0 0 1 176.7 3.8 C 186.2 4.7 190.5 10.3 193.2 22.5 Z M 341.2 56.8 L 330.2 38.7 A 24.15 24.15 0 0 0 336.617 35.131 C 340.749 31.836 342.9 27.304 342.9 21.5 A 16.962 16.962 0 0 0 332.599 5.279 C 327.32 2.671 320.084 1.291 311.06 1.041 A 110.882 110.882 0 0 0 308 1 L 279.4 1 L 279.4 3.8 C 285.641 3.8 287.94 7.216 288.588 11.865 A 25.062 25.062 0 0 1 288.8 15.3 L 288.8 56.8 A 19.957 19.957 0 0 1 288.135 62.381 C 287.095 65.898 284.634 68.3 279.4 68.3 L 279.4 71 L 315.2 71 L 315.2 68.3 C 308.959 68.3 306.66 64.884 306.012 60.235 A 25.062 25.062 0 0 1 305.8 56.8 L 305.8 41.9 L 308 41.9 A 211.144 211.144 0 0 0 311.983 41.876 A 66.705 66.705 0 0 0 314.2 41.8 A 1460.729 1460.729 0 0 1 315.219 43.767 C 318.032 49.205 323.026 58.909 325.33 63.33 A 336.648 336.648 0 0 0 326.1 64.8 A 12.638 12.638 0 0 0 328.315 67.957 C 329.964 69.631 332.005 70.536 334.541 70.86 A 18.631 18.631 0 0 0 336.9 71 L 356.3 71 L 356.3 68.3 C 348.7 68.3 344.8 62.6 341.2 56.8 Z M 264.6 56.7 L 240.4 1 L 235.7 1 L 213.8 56.7 A 32.338 32.338 0 0 1 210.454 63.473 C 208.462 66.296 205.713 68.2 201.2 68.2 L 201.2 71 L 225.8 71 L 225.8 68.2 C 218.239 68.2 215.231 64.934 218.055 56.827 A 28.549 28.549 0 0 1 218.1 56.7 C 219.3 53.6 220.3 51.1 220.3 51.1 L 244.6 51.1 L 247.1 56.7 A 43.097 43.097 0 0 1 247.835 58.708 C 249.756 64.426 249.063 67.426 244.165 68.068 A 17.532 17.532 0 0 1 241.9 68.2 L 241.9 71 L 276.4 71 L 276.4 68.2 A 12.532 12.532 0 0 1 273.342 67.858 C 268.392 66.615 267.143 62.124 264.6 56.7 Z M 390.2 1 L 359.3 1 L 359.3 3.8 A 12.103 12.103 0 0 1 362.842 4.275 C 365.853 5.195 367.422 7.382 368.154 10.217 A 20.59 20.59 0 0 1 368.7 15.3 L 368.7 56.8 A 19.548 19.548 0 0 1 368.015 62.381 C 367.211 65.039 365.595 67.061 362.623 67.889 A 12.361 12.361 0 0 1 359.3 68.3 L 359.3 71 L 390.2 71 A 67.147 67.147 0 0 0 406.424 69.176 C 424.31 64.716 433.4 52.413 433.4 36 C 433.4 17.802 422.116 4.55 399.954 1.613 A 74.299 74.299 0 0 0 390.2 1 Z M 467.1 46.7 L 467.1 68.8 C 467.1 74.4 468.4 77.9 469.9 82.3 A 13.731 13.731 0 0 1 470.519 84.577 C 471.266 88.768 469.677 92.295 466 92.83 A 6.946 6.946 0 0 1 465 92.9 A 6.461 6.461 0 0 1 461.922 92.193 C 460.491 91.42 459.524 90.005 459.4 87.9 C 459.2 84.3 460.8 82.5 463.9 82.2 C 463.9 79.725 462.297 76.23 458.595 75.135 A 8.515 8.515 0 0 0 456.5 74.8 A 10.249 10.249 0 0 0 456.098 74.792 C 451.234 74.792 447.568 78.313 447.99 84.363 A 14.246 14.246 0 0 0 448 84.5 C 448.658 92.392 457.082 96.047 463.738 96.46 A 20.37 20.37 0 0 0 465 96.5 C 479.289 96.5 483.09 86.485 483.291 72.791 A 80.984 80.984 0 0 0 483.3 71.6 L 483.3 24.7 L 480.6 24.7 C 475.001 29.656 465.948 32.085 460.014 32.451 A 24.698 24.698 0 0 1 458.5 32.5 L 458.5 35.2 C 464.249 35.2 466.221 38.175 466.841 42.351 A 30.06 30.06 0 0 1 467.1 46.7 Z M 515.3 56.8 L 515.3 1 L 512.6 1 C 507.001 5.956 497.948 8.385 492.014 8.751 A 24.698 24.698 0 0 1 490.5 8.8 L 490.5 11.6 C 496.249 11.6 498.221 14.575 498.841 18.751 A 30.06 30.06 0 0 1 499.1 23.1 L 499.1 56.8 A 25.919 25.919 0 0 1 498.663 62.136 C 497.905 65.659 495.928 68.124 491.038 68.291 A 15.801 15.801 0 0 1 490.5 68.3 L 490.5 71 L 523.9 71 L 523.9 68.3 A 12.077 12.077 0 0 1 520.699 67.917 C 517.387 67.006 516.071 64.546 515.576 61.354 A 30.239 30.239 0 0 1 515.3 56.8 Z M 389.8 67.1 L 385.6 67.1 L 385.6 5 L 389.8 5 A 30.756 30.756 0 0 1 401.445 7.011 C 409.423 10.263 414.252 17.577 415.422 29.82 A 65.073 65.073 0 0 1 415.7 36 A 56.565 56.565 0 0 1 414.732 46.965 C 411.956 60.961 403.288 67.1 389.8 67.1 Z M 135.7 56.8 L 135.7 24.7 L 133 24.7 A 27.553 27.553 0 0 1 125.139 29.456 C 120.761 31.27 116.063 32.235 112.495 32.452 A 24.653 24.653 0 0 1 111 32.5 L 111 35.2 C 116.749 35.2 118.721 38.175 119.341 42.351 A 30.06 30.06 0 0 1 119.6 46.7 L 119.6 56.8 A 25.919 25.919 0 0 1 119.163 62.136 C 118.405 65.659 116.428 68.124 111.538 68.291 A 15.801 15.801 0 0 1 111 68.3 L 111 71 L 144 71 L 144 68.3 A 11.948 11.948 0 0 1 140.886 67.935 C 136.127 66.648 135.7 62.116 135.7 56.8 Z M 307.6 38 L 305.8 38 L 305.8 5 L 307.6 5 A 26.536 26.536 0 0 1 314.115 5.728 C 321.404 7.579 324.8 12.936 324.8 21.5 C 324.8 30.136 321.347 35.511 313.931 37.318 A 26.806 26.806 0 0 1 307.6 38 Z M 221.9 47.1 L 231.8 21.9 L 242.9 47.1 L 221.9 47.1 Z M 444.6 53.7 A 11.819 11.819 0 0 0 439.779 54.669 A 8.76 8.76 0 0 0 434.4 62.8 A 8.867 8.867 0 0 0 440.906 71.356 A 12.295 12.295 0 0 0 444.6 71.9 A 12.149 12.149 0 0 0 449.345 70.991 A 8.752 8.752 0 0 0 454.9 62.8 A 8.829 8.829 0 0 0 448.588 54.322 A 12.495 12.495 0 0 0 444.6 53.7 Z M 473.5 20 A 10.241 10.241 0 0 0 480.21 17.554 A 9.293 9.293 0 0 0 483.5 10.5 A 9.642 9.642 0 0 0 475.166 1.13 A 10.702 10.702 0 0 0 473.5 1 C 468 1 463.5 5.3 463.5 10.5 A 9.73 9.73 0 0 0 472.106 19.907 A 10.44 10.44 0 0 0 473.5 20 Z M 126 20 C 131.5 20 136 15.7 136 10.5 A 9.73 9.73 0 0 0 127.394 1.093 A 10.44 10.44 0 0 0 126 1 C 120.5 1 116 5.3 116 10.5 A 9.73 9.73 0 0 0 124.606 19.907 A 10.44 10.44 0 0 0 126 20 Z" vector-effect="non-scaling-stroke" />
				</g>
			</svg>
		</g>
	</g>

	<circle class="red" cx="140" cy="140" r="20" />
	<circle class="red" cx="785" cy="210" r="20" />
	<circle class="red" cx="575" cy="540" r="20" />

	<circle class="violet" cx="450" cy="315" r="20" />
	<circle class="violet" cx="600" cy="363" r="20" />
	<circle class="violet" cx="440" cy="390" r="20" />

	<circle class="green" cx="282" cy="487" r="20" />
	<circle class="green" cx="890" cy="650" r="20" />
	<circle class="green" cx="190" cy="677" r="20" />


</svg>